<svg width="28" height="30" viewBox="0 0 28 30" fill="none" xmlns="http://www.w3.org/2000/svg">
<path fill-rule="evenodd" clip-rule="evenodd" d="M6.58847 14C6.15164 14 5.7327 14.1735 5.42382 14.4824C5.11494 14.7913 4.94141 15.2102 4.94141 15.6471V17.2941C4.94141 17.7309 5.11494 18.1499 5.42382 18.4588C5.7327 18.7676 6.15164 18.9412 6.58847 18.9412H8.23552C8.67235 18.9412 9.09129 18.7676 9.40017 18.4588C9.70905 18.1499 9.88258 17.7309 9.88258 17.2941V15.6471C9.88258 15.2102 9.70905 14.7913 9.40017 14.4824C9.09129 14.1735 8.67235 14 8.23552 14H6.58847ZM6.58847 15.6471V17.2941H8.23552V15.6471H6.58847ZM11.5296 15.6471C11.5296 15.2102 11.7032 14.7913 12.0121 14.4824C12.3209 14.1735 12.7399 14 13.1767 14H14.8238C15.2606 14 15.6795 14.1735 15.9884 14.4824C16.2973 14.7913 16.4708 15.2102 16.4708 15.6471V17.2941C16.4708 17.7309 16.2973 18.1499 15.9884 18.4588C15.6795 18.7676 15.2606 18.9412 14.8238 18.9412H13.1767C12.7399 18.9412 12.3209 18.7676 12.0121 18.4588C11.7032 18.1499 11.5296 17.7309 11.5296 17.2941V15.6471ZM13.1767 15.6471H14.8238V17.2941H13.1767V15.6471ZM19.7649 14C19.3281 14 18.9092 14.1735 18.6003 14.4824C18.2914 14.7913 18.1179 15.2102 18.1179 15.6471V17.2941C18.1179 17.7309 18.2914 18.1499 18.6003 18.4588C18.9092 18.7676 19.3281 18.9412 19.7649 18.9412H21.412C21.8488 18.9412 22.2678 18.7676 22.5766 18.4588C22.8855 18.1499 23.0591 17.7309 23.0591 17.2941V15.6471C23.0591 15.2102 22.8855 14.7913 22.5766 14.4824C22.2678 14.1735 21.8488 14 21.412 14H19.7649ZM19.7649 15.6471V17.2941H21.412V15.6471H19.7649ZM4.94141 22.2353C4.94141 21.7985 5.11494 21.3795 5.42382 21.0706C5.7327 20.7618 6.15164 20.5882 6.58847 20.5882H8.23552C8.67235 20.5882 9.09129 20.7618 9.40017 21.0706C9.70905 21.3795 9.88258 21.7985 9.88258 22.2353V23.8824C9.88258 24.3192 9.70905 24.7381 9.40017 25.047C9.09129 25.3559 8.67235 25.5294 8.23552 25.5294H6.58847C6.15164 25.5294 5.7327 25.3559 5.42382 25.047C5.11494 24.7381 4.94141 24.3192 4.94141 23.8824V22.2353ZM6.58847 23.8824V22.2353H8.23552V23.8824H6.58847ZM13.1767 20.5882C12.7399 20.5882 12.3209 20.7618 12.0121 21.0706C11.7032 21.3795 11.5296 21.7985 11.5296 22.2353V23.8824C11.5296 24.3192 11.7032 24.7381 12.0121 25.047C12.3209 25.3559 12.7399 25.5294 13.1767 25.5294H14.8238C15.2606 25.5294 15.6795 25.3559 15.9884 25.047C16.2973 24.7381 16.4708 24.3192 16.4708 23.8824V22.2353C16.4708 21.7985 16.2973 21.3795 15.9884 21.0706C15.6795 20.7618 15.2606 20.5882 14.8238 20.5882H13.1767ZM14.8238 22.2353H13.1767V23.8824H14.8238V22.2353ZM18.1179 22.2353C18.1179 21.7985 18.2914 21.3795 18.6003 21.0706C18.9092 20.7618 19.3281 20.5882 19.7649 20.5882H21.412C21.8488 20.5882 22.2678 20.7618 22.5766 21.0706C22.8855 21.3795 23.0591 21.7985 23.0591 22.2353V23.8824C23.0591 24.3192 22.8855 24.7381 22.5766 25.047C22.2678 25.3559 21.8488 25.5294 21.412 25.5294H19.7649C19.3281 25.5294 18.9092 25.3559 18.6003 25.047C18.2914 24.7381 18.1179 24.3192 18.1179 23.8824V22.2353ZM19.7649 23.8824V22.2353H21.412V23.8824H19.7649Z" fill="white"/>
<path fill-rule="evenodd" clip-rule="evenodd" d="M7.41176 0C7.19335 0 6.98388 0.0867646 6.82944 0.241206C6.675 0.395648 6.58824 0.605116 6.58824 0.823529V3.29412H3.29412C2.42046 3.29412 1.58259 3.64118 0.964825 4.25894C0.347058 4.87671 0 5.71458 0 6.58824V26.3529C0 27.2266 0.347058 28.0645 0.964825 28.6822C1.58259 29.3 2.42046 29.6471 3.29412 29.6471H24.7059C25.5795 29.6471 26.4174 29.3 27.0352 28.6822C27.6529 28.0645 28 27.2266 28 26.3529V6.58824C28 5.71458 27.6529 4.87671 27.0352 4.25894C26.4174 3.64118 25.5795 3.29412 24.7059 3.29412H23.0588V5.76471C23.0588 5.98312 22.9721 6.19259 22.8176 6.34703C22.6632 6.50147 22.4537 6.58824 22.2353 6.58824C22.0169 6.58824 21.8074 6.50147 21.653 6.34703C21.4985 6.19259 21.4118 5.98312 21.4118 5.76471V0.823529C21.4118 0.605116 21.325 0.395648 21.1706 0.241206C21.0161 0.0867646 20.8066 0 20.5882 0C20.3698 0 20.1604 0.0867646 20.0059 0.241206C19.8515 0.395648 19.7647 0.605116 19.7647 0.823529V3.29412H9.88235V5.76471C9.88235 5.98312 9.79559 6.19259 9.64115 6.34703C9.48671 6.50147 9.27724 6.58824 9.05882 6.58824C8.84041 6.58824 8.63094 6.50147 8.4765 6.34703C8.32206 6.19259 8.23529 5.98312 8.23529 5.76471V0.823529C8.23529 0.605116 8.14853 0.395648 7.99409 0.241206C7.83965 0.0867646 7.63018 0 7.41176 0ZM1.64706 26.3529V12.3529H26.3529V26.3529C26.3529 26.7898 26.1794 27.2087 25.8705 27.5176C25.5616 27.8265 25.1427 28 24.7059 28H3.29412C2.85729 28 2.43835 27.8265 2.12947 27.5176C1.82059 27.2087 1.64706 26.7898 1.64706 26.3529Z" fill="white"/>
</svg>
