<svg width="153" height="96" viewBox="0 0 153 96" fill="none" xmlns="http://www.w3.org/2000/svg">
<path d="M130.75 62.1398C130.74 63.6235 130.146 65.0437 129.096 66.0929C128.047 67.1421 126.626 67.736 125.141 67.746H102.527C101.042 67.7376 99.6197 67.1443 98.5696 66.0947C97.5195 65.0451 96.9259 63.624 96.9175 62.1398C96.9275 60.656 97.5217 59.2358 98.5714 58.1866C99.6212 57.1374 101.042 56.5436 102.527 56.5335H125.141C126.625 56.5468 128.044 57.1418 129.093 58.1903C130.142 59.2388 130.737 60.657 130.75 62.1398ZM51.8665 62.1398C51.8581 63.624 51.2645 65.0451 50.2144 66.0947C49.1643 67.1443 47.7425 67.7376 46.2574 67.746H23.6427C22.1576 67.7376 20.7358 67.1443 19.6857 66.0947C18.6356 65.0451 18.042 63.624 18.0336 62.1398C18.0436 60.656 18.6378 59.2358 19.6875 58.1866C20.7373 57.1374 22.1582 56.5436 23.6427 56.5335H46.2574C47.7408 56.5452 49.1601 57.1398 50.2085 58.1889C51.2568 59.2379 51.8501 60.6571 51.8601 62.1398H51.8665ZM40.1384 10.1103H112.827L121.744 32.8027C121.604 32.8027 121.464 32.7772 121.304 32.7772H31.2149L40.1384 10.1103ZM152.83 27.3494C152.461 25.1365 151.229 23.1601 149.405 21.8536C147.58 20.5471 145.312 20.0171 143.097 20.3799L143.148 20.3735L129.233 22.6414C129.029 22.6798 128.829 22.7352 128.634 22.8071L128.666 22.7943L119.704 0H33.2355L24.2737 22.7943C24.0927 22.7319 23.9074 22.6829 23.7192 22.6478L9.79211 20.3735C7.59113 20.028 5.34249 20.5611 3.53123 21.8578C1.71997 23.1545 0.491241 25.1108 0.11009 27.3048L0.103716 27.3558C-0.243617 29.5559 0.289087 31.8042 1.58671 33.615C2.88434 35.4257 4.84269 36.6534 7.03856 37.0328L7.08956 37.0392L15.1908 38.3707C10.048 43.3046 7.06882 50.073 6.90471 57.1961V96H34.9501V81.3474H114.172V96H142.217V75.308C142.332 74.8238 142.396 74.2696 142.396 73.6962V57.2216C142.241 50.3543 139.476 43.8035 134.664 38.8995L134.67 38.9058L145.927 37.0583C148.139 36.6884 150.115 35.4564 151.419 33.6327C152.724 31.809 153.252 29.5425 152.887 27.3303L152.893 27.3812L152.83 27.3494Z" fill="white"/>
</svg>
