<svg width="14" height="17" viewBox="0 0 14 17" fill="none" xmlns="http://www.w3.org/2000/svg">
<g clip-path="url(#clip0_9_293)">
<path d="M8.28287 5.54688V9.54687C8.28287 9.63021 8.25608 9.69866 8.20251 9.75223C8.14894 9.8058 8.08049 9.83259 7.99715 9.83259H5.14001C5.05668 9.83259 4.98822 9.8058 4.93465 9.75223C4.88108 9.69866 4.8543 9.63021 4.8543 9.54687V8.97545C4.8543 8.89211 4.88108 8.82366 4.93465 8.77009C4.98822 8.71652 5.05668 8.68973 5.14001 8.68973H7.14001V5.54688C7.14001 5.46354 7.1668 5.39509 7.22037 5.34152C7.27394 5.28795 7.34239 5.26116 7.42572 5.26116H7.99715C8.08049 5.26116 8.14894 5.28795 8.20251 5.34152C8.25608 5.39509 8.28287 5.46354 8.28287 5.54688ZM11.3454 11.1272C11.3454 11.1272 11.454 10.9412 11.6713 10.5692C11.8885 10.1972 11.9972 9.57068 11.9972 8.68973C11.9972 7.80878 11.7799 6.99628 11.3454 6.25223C10.9108 5.50818 10.3216 4.9189 9.57751 4.48437C8.83346 4.04985 8.02096 3.83259 7.14001 3.83259C6.25906 3.83259 5.44656 4.04985 4.70251 4.48437C3.95846 4.9189 3.36918 5.50818 2.93465 6.25223C2.50013 6.99628 2.28287 7.80878 2.28287 8.68973C2.28287 9.57068 2.50013 10.3832 2.93465 11.1272C3.36918 11.8713 3.95846 12.4606 4.70251 12.8951C5.44656 13.3296 6.25906 13.5469 7.14001 13.5469C8.02096 13.5469 8.83346 13.3296 9.57751 12.8951C10.3216 12.4606 10.9108 11.8713 11.3454 11.1272ZM13.0775 5.24777C13.0775 5.24777 13.2308 5.51042 13.5373 6.03571C13.8439 6.56101 13.9972 7.44568 13.9972 8.68973C13.9972 9.93378 13.6906 11.0811 13.0775 12.1317C12.4644 13.1823 11.6326 14.0141 10.582 14.6272C9.53138 15.2403 8.38406 15.5469 7.14001 15.5469C5.89596 15.5469 4.74864 15.2403 3.69805 14.6272C2.64745 14.0141 1.81561 13.1823 1.20251 12.1317C0.589415 11.0811 0.282867 9.93378 0.282867 8.68973C0.282867 7.44568 0.589415 6.29836 1.20251 5.24777C1.81561 4.19717 2.64745 3.36533 3.69805 2.75223C4.74864 2.13914 5.89596 1.83259 7.14001 1.83259C8.38406 1.83259 9.53138 2.13914 10.582 2.75223C11.6326 3.36533 12.4644 4.19717 13.0775 5.24777Z" fill="#22A2DC"/>
</g>
<defs>
<clipPath id="clip0_9_293">
<rect width="13.72" height="16" fill="white" transform="matrix(1 0 0 -1 0.279999 16.6899)"/>
</clipPath>
</defs>
</svg>
