<svg width="65" height="65" viewBox="0 0 65 65" fill="none" xmlns="http://www.w3.org/2000/svg">
<path d="M41.8184 34.8328C53.4607 34.8328 62.8987 30.6381 62.8987 25.4637C62.8987 20.2894 53.4607 16.0947 41.8184 16.0947C30.176 16.0947 20.738 20.2894 20.738 25.4637C20.738 30.6381 30.176 34.8328 41.8184 34.8328Z" stroke="black" stroke-width="3" stroke-linecap="round" stroke-linejoin="round"/>
<path d="M20.738 25.4639V53.5709C20.738 58.7239 30.1071 62.94 41.8184 62.94C53.5296 62.94 62.8987 58.7239 62.8987 53.5709V25.4639" stroke="black" stroke-width="3" stroke-linecap="round" stroke-linejoin="round"/>
<path d="M62.8987 39.5172C62.8987 44.6702 53.5296 48.8862 41.8184 48.8862C30.1071 48.8862 20.738 44.6702 20.738 39.5172M41.3499 6.72562C35.876 3.34751 29.5043 1.71374 23.0803 2.04111C11.4159 2.04111 2 6.25717 2 11.4101C2 14.174 4.71702 16.6568 9.02677 18.4369" stroke="black" stroke-width="3" stroke-linecap="round" stroke-linejoin="round"/>
<path d="M9.02677 46.544C4.71702 44.7639 2 42.2811 2 39.5172V11.4102" stroke="black" stroke-width="3" stroke-linecap="round" stroke-linejoin="round"/>
<path d="M9.02677 32.4906C4.71702 30.7105 2 28.2277 2 25.4639" stroke="black" stroke-width="3" stroke-linecap="round" stroke-linejoin="round"/>
</svg>
