<svg width="29" height="30" viewBox="0 0 29 30" fill="none" xmlns="http://www.w3.org/2000/svg">
<path d="M8.58984 12.6441C8.58984 11.3619 9.17743 10.1323 10.2233 9.22561C11.2693 8.31897 12.6878 7.80962 14.167 7.80962C15.6461 7.80962 17.0647 8.31897 18.1106 9.22561C19.1565 10.1323 19.7441 11.3619 19.7441 12.6441C19.7441 13.9263 19.1565 15.156 18.1106 16.0627C17.0647 16.9693 15.6461 17.4787 14.167 17.4787C12.6878 17.4787 11.2693 16.9693 10.2233 16.0627C9.17743 15.156 8.58984 13.9263 8.58984 12.6441Z" fill="white"/>
<path fill-rule="evenodd" clip-rule="evenodd" d="M0.0504675 10.9736C0.335136 7.98303 1.9066 5.19456 4.45292 3.16171C6.99924 1.12887 10.3342 0.000289486 13.7959 0H14.5373C17.9989 0.000289486 21.3339 1.12887 23.8803 3.16171C26.4266 5.19456 27.998 7.98303 28.2827 10.9736C28.6007 14.3124 27.4115 17.6279 24.9656 20.2217L16.7406 28.9417C16.4289 29.2724 16.0362 29.539 15.591 29.722C15.1459 29.905 14.6593 30 14.1666 30C13.6739 30 13.1873 29.905 12.7421 29.722C12.2969 29.539 11.9043 29.2724 11.5925 28.9417L3.36928 20.2217C0.922738 17.6281 -0.267075 14.3126 0.0504675 10.9736ZM14.1666 5.5783C12.0048 5.5783 9.93148 6.32273 8.40284 7.64783C6.87419 8.97293 6.01541 10.7702 6.01541 12.6441C6.01541 14.5181 6.87419 16.3153 8.40284 17.6404C9.93148 18.9655 12.0048 19.71 14.1666 19.71C16.3284 19.71 18.4017 18.9655 19.9303 17.6404C21.459 16.3153 22.3178 14.5181 22.3178 12.6441C22.3178 10.7702 21.459 8.97293 19.9303 7.64783C18.4017 6.32273 16.3284 5.5783 14.1666 5.5783Z" fill="white"/>
</svg>
