<svg width="61" height="61" viewBox="0 0 61 61" fill="none" xmlns="http://www.w3.org/2000/svg">
<path d="M3.08107 0L0 3.07896L5.42765 12.4589L8.94753 11.943L30.4329 33.416L28.6002 35.1747C27.6616 36.1127 27.6616 37.5338 28.6002 38.4718L29.5529 39.4262C30.4915 40.3642 31.9276 40.3642 32.6316 39.4262L35.4194 42.2097C35.1847 43.6166 35.4194 45.2886 36.5927 46.4611L49.2783 59.0654C51.8596 61.6449 56.0834 61.6449 58.6646 59.0654C61.7152 56.2514 61.6871 52.0445 59.1058 49.465L46.4929 36.7857C45.3196 35.6132 43.6465 35.1442 42.2385 35.6132L39.1575 32.8297C39.8615 31.8917 39.8615 30.4566 39.1575 29.7508L38.2775 28.8738C38.0642 28.6515 37.8081 28.4746 37.5246 28.3537C37.2411 28.2329 36.9361 28.1706 36.6279 28.1706C36.3197 28.1706 36.0146 28.2329 35.7311 28.3537C35.4476 28.4746 35.1915 28.6515 34.9782 28.8738L33.4389 30.4121L11.9535 8.94141L12.4651 5.42394L3.08107 0ZM48.8395 0.0726944C44.2097 -0.311882 38.071 2.75535 35.1988 5.4216C31.6648 8.95314 32.2421 13.5704 35.051 18.0282L30.0668 23.0113L33.5867 26.9673C35.464 25.3258 38.2329 25.3258 40.1102 26.9673L41.0653 27.9193L41.2858 28.1398L43.3391 26.0879C47.5817 28.5806 51.998 28.9394 55.3653 25.5744C58.6506 22.5259 62.2127 15.0079 60.5701 10.5524L53.9715 17.3669C53.0328 18.3049 51.6108 18.3049 50.6722 17.3669L43.8507 10.5524C43.6282 10.3392 43.4512 10.0833 43.3303 9.8C43.2093 9.5167 43.147 9.21189 43.147 8.90389C43.147 8.5959 43.2093 8.29108 43.3303 8.00778C43.4512 7.72448 43.6282 7.46855 43.8507 7.25537L50.6745 0.440856C50.0879 0.234498 49.5012 0.128974 48.8395 0.0726944ZM23.027 29.3123L14.5183 37.8128C13.604 37.6098 12.6695 37.5115 11.7329 37.5197C5.16249 37.5197 0 42.6787 0 49.2446C0 55.8106 5.16249 60.9695 11.7329 60.9695C18.3034 60.9695 23.4659 55.8106 23.4659 49.2446C23.4659 48.0416 23.2758 46.8856 22.952 45.7998L27.9385 40.8167L27.2063 39.8647C25.329 37.9887 25.3431 35.1466 26.9857 33.2682L23.027 29.3123ZM41.2131 40.0124C41.5064 40.0124 41.7833 40.0687 42.018 40.3055L55.8793 54.155C56.3486 54.624 56.3486 55.3697 55.8793 55.8387C55.4099 56.3077 54.659 56.3077 54.1897 55.8387L40.3331 41.9892C39.8638 41.5202 39.8638 40.7745 40.3331 40.3055C40.5678 40.071 40.9198 40.0124 41.2131 40.0124ZM13.3474 43.1594L17.82 47.6313L16.2055 53.7118L10.1208 55.3251L5.64589 50.8533L7.26034 44.7727L13.3474 43.1594Z" fill="black"/>
</svg>
