<svg width="61" height="59" viewBox="0 0 61 59" fill="none" xmlns="http://www.w3.org/2000/svg">
<path d="M52.2857 29.5C52.2853 26.1096 51.433 22.7702 49.8022 19.7692L46.5452 22.9215C47.4607 25.0015 47.9312 27.2393 47.9286 29.5H52.2857ZM46.652 16.8571L43.5714 13.8776L33.2995 23.8107C32.4273 23.3993 31.4704 23.1833 30.5 23.1785C29.2074 23.1785 27.9438 23.5493 26.869 24.2439C25.7942 24.9385 24.9565 25.9258 24.4618 27.0809C23.9671 28.236 23.8377 29.507 24.0899 30.7332C24.3421 31.9595 24.9645 33.0858 25.8786 33.9699C26.7926 34.854 27.9572 35.456 29.225 35.6999C30.4928 35.9438 31.8069 35.8187 33.0011 35.3402C34.1954 34.8618 35.2161 34.0515 35.9343 33.012C36.6524 31.9724 37.0357 30.7502 37.0357 29.5C37.0309 28.5614 36.8075 27.6359 36.3822 26.7923L46.652 16.8571ZM30.5 31.6071C30.0691 31.6071 29.6479 31.4835 29.2897 31.252C28.9314 31.0205 28.6522 30.6914 28.4873 30.3063C28.3224 29.9213 28.2793 29.4976 28.3633 29.0889C28.4474 28.6801 28.6549 28.3047 28.9595 28.01C29.2642 27.7153 29.6524 27.5146 30.075 27.4333C30.4976 27.352 30.9356 27.3937 31.3337 27.5532C31.7318 27.7127 32.0721 27.9828 32.3114 28.3293C32.5508 28.6758 32.6786 29.0832 32.6786 29.5C32.678 30.0586 32.4483 30.5943 32.0399 30.9893C31.6314 31.3844 31.0776 31.6066 30.5 31.6071ZM30.5 12.6428C32.8373 12.6405 35.1509 13.0956 37.3015 13.9809L40.5607 10.8286C37.2426 9.14824 33.5322 8.32491 29.7886 8.43829C26.045 8.55167 22.3951 9.59793 19.1922 11.4758C15.9893 13.3536 13.3419 15.9994 11.5063 19.1571C9.67066 22.3148 8.70897 25.8774 8.71432 29.5H13.0715C13.0772 25.0309 14.9153 20.7464 18.1825 17.5863C21.4498 14.4262 25.8795 12.6484 30.5 12.6428Z" fill="black"/>
<path d="M30.5 59C24.4677 59 18.5708 57.2699 13.5551 54.0284C8.53942 50.7869 4.63016 46.1796 2.32169 40.7892C0.0132151 35.3987 -0.590786 29.4673 0.586063 23.7448C1.76291 18.0224 4.66775 12.766 8.93325 8.64036C13.1988 4.51471 18.6333 1.70511 24.5498 0.566847C30.4662 -0.571416 36.5987 0.0127819 42.1718 2.24557C47.745 4.47835 52.5084 8.25944 55.8598 13.1107C59.2112 17.9619 61 23.6655 61 29.5C60.9908 37.3212 57.7744 44.8194 52.0566 50.3498C46.3387 55.8802 38.5863 58.9911 30.5 59ZM30.5 4.2143C25.3294 4.2143 20.275 5.69728 15.9758 8.47571C11.6766 11.2541 8.32585 15.2032 6.34716 19.8236C4.36847 24.4439 3.85076 29.5281 4.85948 34.433C5.86821 39.338 8.35808 43.8434 12.0142 47.3797C15.6704 50.916 20.3286 53.3242 25.3998 54.2999C30.471 55.2755 35.7275 54.7748 40.5044 52.861C45.2814 50.9471 49.3644 47.7062 52.237 43.548C55.1096 39.3898 56.6429 34.501 56.6429 29.5C56.6348 22.7962 53.8779 16.3692 48.9769 11.6289C44.0759 6.88863 37.431 4.22211 30.5 4.2143Z" fill="black"/>
</svg>
