<svg width="190" height="96" viewBox="0 0 190 96" fill="none" xmlns="http://www.w3.org/2000/svg">
<path d="M186.975 19.293L123.502 38.4L108.512 30.828C105.874 29.4954 102.965 28.8012 100.016 28.8H83.1263V14.4H99.7516C102.376 14.4 104.502 12.252 104.502 9.6V4.8C104.502 2.148 102.376 0 99.7516 0H52.2508C49.6264 0 47.5007 2.148 47.5007 4.8V9.6C47.5007 12.252 49.6264 14.4 52.2508 14.4H68.8761V28.8H52.2508L11.1983 21.258C10.6313 21.1522 10.0559 21.099 9.47937 21.099C4.35522 21.099 0 25.308 0 30.702V59.187C0 63.825 3.28349 67.803 7.802 68.631L28.5004 72.438V86.4C28.5004 91.701 32.7547 96 38.0006 96H119.533C122.071 96 124.505 94.974 126.29 93.147L189.305 28.722C189.751 28.272 190 27.66 190 27.024V21.6C190.003 20.007 188.492 18.855 186.975 19.293ZM28.5004 57.801L14.2502 55.182V36.453L28.5004 39.072V57.801ZM163.085 83.199C163.085 90.267 168.755 96 175.753 96C182.75 96 188.421 90.27 188.421 83.199C188.421 76.128 175.753 57.6 175.753 57.6C175.753 57.6 163.085 76.131 163.085 83.199Z" fill="white"/>
</svg>
