<svg width="58" height="62" viewBox="0 0 58 62" fill="none" xmlns="http://www.w3.org/2000/svg">
<path d="M28.7466 0.00139618C29.751 0.00139618 30.7401 0.0665705 31.6602 0.219922C32.5664 0.338664 33.4605 0.536214 34.3324 0.810324C35.2065 1.07486 36.0614 1.40456 36.9163 1.81861C37.7483 2.21349 38.6032 2.69655 39.4581 3.22177C40.9035 4.14188 42.3258 4.88564 43.775 5.47987C46.6279 6.6217 49.6446 7.30115 52.7115 7.49261C54.2681 7.60379 55.8667 7.66896 57.5306 7.66896V23.0041C57.5306 25.9178 57.1587 28.6781 56.415 31.3081C55.7005 33.9005 54.6854 36.4005 53.3901 38.7571C52.1003 41.1104 50.5743 43.3263 48.8356 45.3704C47.0702 47.461 45.1587 49.4237 43.1156 51.2437C41.0454 53.0692 38.865 54.7656 36.5866 56.3235C34.3094 57.903 32.0091 59.3714 29.7088 60.7055L28.7887 61.2538L27.8686 60.7055C25.5039 59.3365 23.1942 57.8747 20.9448 56.3235C18.6537 54.7832 16.4722 53.0858 14.4159 51.2437C12.374 49.4236 10.4638 47.4609 8.6997 45.3704C6.96566 43.3176 5.43278 41.103 4.12217 38.7571C2.84909 36.39 1.83494 33.8926 1.09731 31.3081C0.348842 28.6043 -0.0201763 25.8095 0.000850338 23.0041V7.66896C1.66855 7.66896 3.26723 7.60379 4.82375 7.49261C6.35596 7.38618 7.87826 7.16707 9.37828 6.83703C10.8466 6.50733 12.315 6.07028 13.7603 5.47987C15.2601 4.87457 16.698 4.12608 18.0541 3.24478C19.741 2.14831 21.4509 1.33939 23.1377 0.806491C24.9544 0.249563 26.8466 -0.022034 28.7466 0.00139618ZM53.6738 11.4376C50.7718 11.2968 47.8967 10.8116 45.1091 9.99224C42.3363 9.16512 39.6952 7.94784 37.2652 6.37698C36.0048 5.54963 34.6359 4.90068 33.1976 4.44859C31.7608 4.01435 30.2666 3.79979 28.7657 3.81218C27.2537 3.8024 25.7485 4.01686 24.2994 4.44859C22.8589 4.88599 21.4918 5.53595 20.2432 6.37698C17.809 7.95641 15.1611 9.17902 12.3801 10.0076C9.66198 10.7973 6.81732 11.2804 3.83463 11.4567V23.0233C3.83463 25.5651 4.16434 27.9957 4.82375 30.3381C5.49553 32.6602 6.42123 34.9012 7.58407 37.0204C8.76085 39.1617 10.1478 41.1806 11.7246 43.0471C13.3232 44.9295 15.0293 46.6815 16.8695 48.3454C18.7097 50.0131 20.6381 51.5466 22.6547 52.9689C24.6904 54.3951 26.73 55.6871 28.7657 56.8679C30.8502 55.6544 32.8826 54.3536 34.8576 52.9689C36.8875 51.5511 38.8261 50.0069 40.662 48.3454C42.5022 46.6815 44.212 44.9295 45.8107 43.0471C47.3876 41.1807 48.7746 39.1618 49.9512 37.0204C51.1089 34.9038 52.0209 32.6618 52.6694 30.3381C53.3488 27.9597 53.687 25.4968 53.6738 23.0233V11.4376Z" fill="black"/>
<path fill-rule="evenodd" clip-rule="evenodd" d="M43.0388 18.0544L41.352 16.6052L39.7955 16.7394L23.0802 36.4757L17.387 28.3481L15.8535 28.0874L14.0784 29.3564L13.8139 30.8899L21.1326 41.3408L21.9645 41.8008L23.7166 41.9082L24.6137 41.5171L43.15 19.6071L43.0388 18.0544Z" fill="#085C1F"/>
</svg>
