<svg width="98" height="98" viewBox="0 0 98 98" fill="none" xmlns="http://www.w3.org/2000/svg">
<path d="M49 0C36.0044 0 23.541 5.16248 14.3518 14.3518C5.16248 23.541 0 36.0044 0 49C0 61.9956 5.16248 74.459 14.3518 83.6482C23.541 92.8375 36.0044 98 49 98C55.4348 98 61.8065 96.7326 67.7515 94.2701C73.6964 91.8076 79.0982 88.1983 83.6482 83.6482C88.1983 79.0982 91.8076 73.6964 94.2701 67.7515C96.7326 61.8065 98 55.4348 98 49C98 42.5652 96.7326 36.1935 94.2701 30.2485C91.8076 24.3036 88.1983 18.9018 83.6482 14.3518C79.0982 9.8017 73.6964 6.19238 67.7515 3.7299C61.8065 1.26742 55.4348 0 49 0ZM49 17.0979C66.5968 17.0979 80.9021 31.4032 80.9021 49C80.9021 66.5968 66.5968 80.9021 49 80.9021C31.4032 80.9021 17.0979 66.5968 17.0979 49C17.0979 31.4032 31.4032 17.0979 49 17.0979ZM49 20.8511C44.7428 20.8511 40.7102 21.7935 37.0961 23.4787C39.5038 30.3345 43.6242 38.9915 49 38.9915C54.3844 38.9915 58.3675 30.307 60.8334 23.446C57.2372 21.7814 53.2294 20.8511 49 20.8511ZM69.5908 29.792C63.8122 34.2005 56.8421 40.7993 58.5043 45.9155C60.1685 51.0374 69.6613 52.1412 76.949 52.366C77.0799 51.2621 77.1489 50.1395 77.1489 49C77.1489 41.5683 74.2809 34.8188 69.5908 29.792ZM28.3622 29.8427C23.6999 34.8638 20.8511 41.5931 20.8511 49C20.8511 50.1572 20.922 51.2974 21.0571 52.4175C28.3201 52.2455 37.8174 51.0011 39.4777 45.8911C41.1404 40.7738 34.1232 34.3077 28.3622 29.8427ZM42.9972 38.9427C42.6192 38.9533 42.2533 39.0779 41.9473 39.3001C41.5448 39.5927 41.2749 40.0331 41.1971 40.5247C41.1193 41.0162 41.2399 41.5185 41.5324 41.9211C41.8249 42.3237 42.2653 42.5937 42.7568 42.6716C43.2483 42.7495 43.7507 42.629 44.1534 42.3366C44.3528 42.1918 44.5217 42.0091 44.6505 41.799C44.7793 41.5888 44.8655 41.3554 44.904 41.112C44.9426 40.8685 44.9328 40.6199 44.8753 40.3802C44.8178 40.1406 44.7136 39.9146 44.5687 39.7152C44.3893 39.4684 44.1524 39.269 43.8786 39.1344C43.6047 38.9998 43.3022 38.934 42.9972 38.9427ZM55.0028 38.9427C54.9585 38.9414 54.9142 38.9417 54.87 38.9435C54.5876 38.9555 54.3115 39.031 54.0623 39.1646C53.8132 39.2982 53.5975 39.4864 53.4313 39.715C53.2864 39.9144 53.1822 40.1404 53.1246 40.3801C53.0671 40.6198 53.0573 40.8684 53.0959 41.1119C53.1344 41.3553 53.2206 41.5888 53.3494 41.7989C53.4782 42.0091 53.6472 42.1918 53.8466 42.3366C54.2493 42.6291 54.7516 42.7496 55.2431 42.6717C55.7346 42.5938 56.1751 42.3239 56.4676 41.9213C56.7601 41.5187 56.8807 41.0164 56.8029 40.5249C56.7251 40.0333 56.4552 39.5929 56.0527 39.3003C55.7467 39.078 55.3808 38.9534 55.0028 38.9427ZM49 42.3277C47.2304 42.3277 45.5332 43.0306 44.2819 44.2819C43.0306 45.5332 42.3277 47.2304 42.3277 49C42.3277 50.7696 43.0306 52.4667 44.2819 53.7181C45.5332 54.9694 47.2304 55.6723 49 55.6723C50.7696 55.6723 52.4667 54.9694 53.7181 53.7181C54.9694 52.4667 55.6723 50.7696 55.6723 49C55.6723 47.2304 54.9694 45.5332 53.7181 44.2819C52.4667 43.0306 50.7696 42.3277 49 42.3277ZM39.3466 50.2588C39.1587 50.2615 38.9723 50.2924 38.7936 50.3505C38.5592 50.4266 38.3421 50.5482 38.1546 50.7082C37.9672 50.8683 37.8131 51.0637 37.7012 51.2833C37.5893 51.5028 37.5217 51.7423 37.5024 51.988C37.483 52.2337 37.5123 52.4808 37.5884 52.7152C37.7422 53.1885 38.0778 53.5814 38.5212 53.8073C38.9646 54.0332 39.4796 54.0738 39.9529 53.92C40.1873 53.8439 40.4044 53.7224 40.5918 53.5623C40.7793 53.4023 40.9333 53.2069 41.0452 52.9874C41.1572 52.7678 41.2247 52.5283 41.2441 52.2827C41.2635 52.037 41.2342 51.7899 41.1581 51.5555C41.0343 51.1742 40.7916 50.8426 40.4656 50.6092C40.1396 50.3759 39.7474 50.2531 39.3466 50.2588ZM58.708 50.2604C58.2982 50.2426 57.8938 50.3596 57.5568 50.5935C57.2198 50.8273 56.9687 51.1652 56.8419 51.5553C56.7658 51.7897 56.7365 52.0368 56.7559 52.2825C56.7753 52.5281 56.8428 52.7676 56.9548 52.9872C57.0667 53.2067 57.2207 53.4021 57.4082 53.5621C57.5956 53.7221 57.8127 53.8437 58.0471 53.9198C58.5204 54.0736 59.0353 54.0331 59.4788 53.8072C59.9222 53.5813 60.2577 53.1885 60.4116 52.7152C60.4877 52.4808 60.517 52.2337 60.4976 51.988C60.4783 51.7423 60.4107 51.5028 60.2988 51.2833C60.1869 51.0637 60.0328 50.8683 59.8454 50.7082C59.6579 50.5482 59.4408 50.4266 59.2064 50.3505C59.0451 50.2981 58.8775 50.2678 58.708 50.2604ZM39.4953 56.0389C34.9935 56.0606 29.0197 59.5486 24.3941 62.6962C28.3618 69.8206 35.3325 75.0326 43.6069 76.6325C45.6899 69.6703 47.4476 60.2398 43.0969 57.079C42.0847 56.3435 40.8581 56.0322 39.4953 56.0389ZM58.4731 56.0431C57.1011 56.0431 55.8683 56.3592 54.8562 57.0944C50.4994 60.2598 52.3827 69.6271 54.4209 76.6272C62.696 75.0186 69.6646 69.7964 73.6247 62.6627C69.0362 59.4883 63.0042 56.0431 58.4731 56.0429V56.0431ZM49 57.2528C48.5023 57.2528 48.025 57.4506 47.673 57.8025C47.3211 58.1544 47.1234 58.6317 47.1234 59.1294C47.1234 59.6271 47.3211 60.1045 47.673 60.4564C48.025 60.8083 48.5023 61.006 49 61.006C49.4977 61.006 49.975 60.8083 50.327 60.4564C50.6789 60.1045 50.8766 59.6271 50.8766 59.1294C50.8766 58.6317 50.6789 58.1544 50.327 57.8025C49.975 57.4506 49.4977 57.2528 49 57.2528Z" fill="white"/>
</svg>
