<svg width="28" height="30" viewBox="0 0 28 30" fill="none" xmlns="http://www.w3.org/2000/svg">
<path fill-rule="evenodd" clip-rule="evenodd" d="M6.58847 13.9689C6.15164 13.9689 5.7327 14.1358 5.42382 14.4329C5.11494 14.73 4.94141 15.1329 4.94141 15.5531V17.1372C4.94141 17.5574 5.11494 17.9603 5.42382 18.2574C5.7327 18.5545 6.15164 18.7214 6.58847 18.7214H8.23552C8.67235 18.7214 9.09129 18.5545 9.40017 18.2574C9.70905 17.9603 9.88258 17.5574 9.88258 17.1372V15.5531C9.88258 15.1329 9.70905 14.73 9.40017 14.4329C9.09129 14.1358 8.67235 13.9689 8.23552 13.9689H6.58847ZM6.58847 15.5531V17.1372H8.23552V15.5531H6.58847ZM11.5296 15.5531C11.5296 15.1329 11.7032 14.73 12.0121 14.4329C12.3209 14.1358 12.7399 13.9689 13.1767 13.9689H14.8238C15.2606 13.9689 15.6795 14.1358 15.9884 14.4329C16.2973 14.73 16.4708 15.1329 16.4708 15.5531V17.1372C16.4708 17.5574 16.2973 17.9603 15.9884 18.2574C15.6795 18.5545 15.2606 18.7214 14.8238 18.7214H13.1767C12.7399 18.7214 12.3209 18.5545 12.0121 18.2574C11.7032 17.9603 11.5296 17.5574 11.5296 17.1372V15.5531ZM13.1767 15.5531H14.8238V17.1372H13.1767V15.5531ZM19.7649 13.9689C19.3281 13.9689 18.9092 14.1358 18.6003 14.4329C18.2914 14.73 18.1179 15.1329 18.1179 15.5531V17.1372C18.1179 17.5574 18.2914 17.9603 18.6003 18.2574C18.9092 18.5545 19.3281 18.7214 19.7649 18.7214H21.412C21.8488 18.7214 22.2678 18.5545 22.5766 18.2574C22.8855 17.9603 23.0591 17.5574 23.0591 17.1372V15.5531C23.0591 15.1329 22.8855 14.73 22.5766 14.4329C22.2678 14.1358 21.8488 13.9689 21.412 13.9689H19.7649ZM19.7649 15.5531V17.1372H21.412V15.5531H19.7649ZM4.94141 21.8897C4.94141 21.4696 5.11494 21.0666 5.42382 20.7695C5.7327 20.4724 6.15164 20.3055 6.58847 20.3055H8.23552C8.67235 20.3055 9.09129 20.4724 9.40017 20.7695C9.70905 21.0666 9.88258 21.4696 9.88258 21.8897V23.4739C9.88258 23.894 9.70905 24.2969 9.40017 24.594C9.09129 24.8911 8.67235 25.058 8.23552 25.058H6.58847C6.15164 25.058 5.7327 24.8911 5.42382 24.594C5.11494 24.2969 4.94141 23.894 4.94141 23.4739V21.8897ZM6.58847 23.4739V21.8897H8.23552V23.4739H6.58847ZM13.1767 20.3055C12.7399 20.3055 12.3209 20.4724 12.0121 20.7695C11.7032 21.0666 11.5296 21.4696 11.5296 21.8897V23.4739C11.5296 23.894 11.7032 24.2969 12.0121 24.594C12.3209 24.8911 12.7399 25.058 13.1767 25.058H14.8238C15.2606 25.058 15.6795 24.8911 15.9884 24.594C16.2973 24.2969 16.4708 23.894 16.4708 23.4739V21.8897C16.4708 21.4696 16.2973 21.0666 15.9884 20.7695C15.6795 20.4724 15.2606 20.3055 14.8238 20.3055H13.1767ZM14.8238 21.8897H13.1767V23.4739H14.8238V21.8897ZM18.1179 21.8897C18.1179 21.4696 18.2914 21.0666 18.6003 20.7695C18.9092 20.4724 19.3281 20.3055 19.7649 20.3055H21.412C21.8488 20.3055 22.2678 20.4724 22.5766 20.7695C22.8855 21.0666 23.0591 21.4696 23.0591 21.8897V23.4739C23.0591 23.894 22.8855 24.2969 22.5766 24.594C22.2678 24.8911 21.8488 25.058 21.412 25.058H19.7649C19.3281 25.058 18.9092 24.8911 18.6003 24.594C18.2914 24.2969 18.1179 23.894 18.1179 23.4739V21.8897ZM19.7649 23.4739V21.8897H21.412V23.4739H19.7649Z" fill="white"/>
<path fill-rule="evenodd" clip-rule="evenodd" d="M7.41176 0.50354C7.19335 0.50354 6.98388 0.586991 6.82944 0.735535C6.675 0.884079 6.58824 1.08555 6.58824 1.29562V3.67186H3.29412C2.42046 3.67186 1.58259 4.00566 0.964825 4.59984C0.347058 5.19401 0 5.99989 0 6.84018V25.8501C0 26.6904 0.347058 27.4963 0.964825 28.0904C1.58259 28.6846 2.42046 29.0184 3.29412 29.0184H24.7059C25.5795 29.0184 26.4174 28.6846 27.0352 28.0904C27.6529 27.4963 28 26.6904 28 25.8501V6.84018C28 5.99989 27.6529 5.19401 27.0352 4.59984C26.4174 4.00566 25.5795 3.67186 24.7059 3.67186H23.0588V6.0481C23.0588 6.25817 22.9721 6.45964 22.8176 6.60818C22.6632 6.75673 22.4537 6.84018 22.2353 6.84018C22.0169 6.84018 21.8074 6.75673 21.653 6.60818C21.4985 6.45964 21.4118 6.25817 21.4118 6.0481V1.29562C21.4118 1.08555 21.325 0.884079 21.1706 0.735535C21.0161 0.586991 20.8066 0.50354 20.5882 0.50354C20.3698 0.50354 20.1604 0.586991 20.0059 0.735535C19.8515 0.884079 19.7647 1.08555 19.7647 1.29562V3.67186H9.88235V6.0481C9.88235 6.25817 9.79559 6.45964 9.64115 6.60818C9.48671 6.75673 9.27724 6.84018 9.05882 6.84018C8.84041 6.84018 8.63094 6.75673 8.4765 6.60818C8.32206 6.45964 8.23529 6.25817 8.23529 6.0481V1.29562C8.23529 1.08555 8.14853 0.884079 7.99409 0.735535C7.83965 0.586991 7.63018 0.50354 7.41176 0.50354ZM1.64706 25.8501V12.3847H26.3529V25.8501C26.3529 26.2702 26.1794 26.6732 25.8705 26.9703C25.5616 27.2674 25.1427 27.4343 24.7059 27.4343H3.29412C2.85729 27.4343 2.43835 27.2674 2.12947 26.9703C1.82059 26.6732 1.64706 26.2702 1.64706 25.8501Z" fill="white"/>
</svg>
