<svg width="31" height="30" viewBox="0 0 31 30" fill="none" xmlns="http://www.w3.org/2000/svg">
<path d="M17.038 0.505315C18.1325 0.501275 19.2271 0.511856 20.3213 0.537053L20.6123 0.547152C20.9483 0.558693 21.2798 0.573119 21.6802 0.59043C23.2762 0.662562 24.3651 0.904925 25.3205 1.26126C26.3105 1.62768 27.1444 2.12395 27.9784 2.92606C28.7409 3.6468 29.331 4.51865 29.7078 5.48096C30.0783 6.39992 30.3303 7.44871 30.4053 8.98368C30.4232 9.36742 30.4382 9.68768 30.4502 10.0108L30.4592 10.2907C30.4859 11.3427 30.4974 12.3949 30.4937 13.4472L30.4952 14.5234V16.4132C30.4989 17.466 30.4874 18.5187 30.4607 19.5712L30.4517 19.851C30.4397 20.1742 30.4247 20.493 30.4067 20.8782C30.3318 22.4132 30.0768 23.4605 29.7078 24.3795C29.3323 25.3428 28.742 26.2154 27.9784 26.9358C27.2284 27.6691 26.3214 28.2367 25.3205 28.5992C24.3651 28.9555 23.2762 29.1979 21.6802 29.27C21.2798 29.2873 20.9483 29.3017 20.6123 29.3133L20.3213 29.3219C19.2271 29.3476 18.1326 29.3586 17.038 29.3551L15.9191 29.3566H13.9557C12.8611 29.3601 11.7666 29.3491 10.6724 29.3234L10.3814 29.3147C10.0253 29.3023 9.66934 29.2879 9.31345 29.2714C7.71755 29.1993 6.62861 28.9541 5.67166 28.5992C4.67075 28.2376 3.76413 27.6699 3.01531 26.9358C2.25193 26.2149 1.66123 25.3425 1.28441 24.3795C0.913935 23.4605 0.66195 22.4132 0.586954 20.8782C0.570249 20.5359 0.55525 20.1935 0.541957 19.851L0.534457 19.5712C0.506804 18.5187 0.494304 17.466 0.496959 16.4132V13.4472C0.492773 12.3949 0.503774 11.3427 0.529957 10.2907L0.540457 10.0108C0.552456 9.68768 0.567455 9.36742 0.585454 8.98368C0.66045 7.44727 0.912435 6.40136 1.28291 5.48096C1.65995 4.51818 2.2518 3.64657 3.01681 2.9275C3.76511 2.19284 4.67116 1.62418 5.67166 1.26126C6.62861 0.904925 7.71605 0.662562 9.31345 0.59043L10.3814 0.547152L10.6724 0.539939C11.7661 0.513355 12.8601 0.501332 13.9542 0.503873L17.038 0.505315ZM15.4961 7.71849C14.5024 7.70497 13.5158 7.88154 12.5937 8.23793C11.6716 8.59433 10.8323 9.12344 10.1247 9.79452C9.41701 10.4656 8.85508 11.2653 8.47153 12.147C8.08799 13.0288 7.89047 13.9751 7.89047 14.9309C7.89047 15.8868 8.08799 16.8331 8.47153 17.7148C8.85508 18.5966 9.41701 19.3963 10.1247 20.0674C10.8323 20.7384 11.6716 21.2675 12.5937 21.6239C13.5158 21.9803 14.5024 22.1569 15.4961 22.1434C17.4851 22.1434 19.3927 21.3834 20.7991 20.0307C22.2055 18.678 22.9957 16.8433 22.9957 14.9302C22.9957 13.0172 22.2055 11.1825 20.7991 9.82973C19.3927 8.477 17.4851 7.71849 15.4961 7.71849ZM15.4961 10.6038C16.0938 10.5932 16.6878 10.6972 17.2432 10.9099C17.7986 11.1226 18.3044 11.4395 18.7311 11.8423C19.1577 12.2451 19.4966 12.7256 19.728 13.2558C19.9594 13.786 20.0786 14.3552 20.0787 14.9302C20.0788 15.5052 19.9598 16.0745 19.7286 16.6047C19.4974 17.135 19.1587 17.6156 18.7322 18.0185C18.3057 18.4214 17.8 18.7386 17.2446 18.9514C16.6892 19.1643 16.0953 19.2685 15.4976 19.2581C14.3042 19.2581 13.1597 18.8021 12.3158 17.9905C11.4719 17.1789 10.9979 16.078 10.9979 14.9302C10.9979 13.7824 11.4719 12.6816 12.3158 11.8699C13.1597 11.0583 14.3042 10.6023 15.4976 10.6023L15.4961 10.6038ZM23.3706 5.55454C22.8868 5.57316 22.4291 5.77115 22.0936 6.10702C21.7581 6.4429 21.5707 6.89061 21.5707 7.35639C21.5707 7.82216 21.7581 8.26987 22.0936 8.60575C22.4291 8.94162 22.8868 9.13961 23.3706 9.15824C23.8679 9.15824 24.3448 8.96825 24.6964 8.63006C25.048 8.29188 25.2455 7.83321 25.2455 7.35494C25.2455 6.87668 25.048 6.41801 24.6964 6.07982C24.3448 5.74164 23.8679 5.55165 23.3706 5.55165V5.55454Z" fill="white"/>
</svg>
