<svg width="29" height="30" viewBox="0 0 29 30" fill="none" xmlns="http://www.w3.org/2000/svg">
<path fill-rule="evenodd" clip-rule="evenodd" d="M0.0504675 11.0581C0.335136 8.18171 1.9066 5.49972 4.45292 3.54451C6.99924 1.5893 10.3342 0.503818 13.7959 0.50354H14.5373C17.9989 0.503818 21.3339 1.5893 23.8803 3.54451C26.4266 5.49972 27.998 8.18171 28.2827 11.0581C28.6007 14.2694 27.4115 17.4582 24.9656 19.953L16.7406 28.34C16.4289 28.6581 16.0362 28.9145 15.591 29.0905C15.1459 29.2665 14.6593 29.3579 14.1666 29.3579C13.6739 29.3579 13.1873 29.2665 12.7421 29.0905C12.2969 28.9145 11.9043 28.6581 11.5925 28.34L3.36928 19.953C0.922738 17.4584 -0.267075 14.2696 0.0504675 11.0581ZM14.1666 5.86881C12.0048 5.86881 9.93148 6.58481 8.40284 7.85931C6.87419 9.13381 6.01541 10.8624 6.01541 12.6648C6.01541 14.4672 6.87419 16.1958 8.40284 17.4703C9.93148 18.7448 12.0048 19.4608 14.1666 19.4608C16.3284 19.4608 18.4017 18.7448 19.9303 17.4703C21.459 16.1958 22.3178 14.4672 22.3178 12.6648C22.3178 10.8624 21.459 9.13381 19.9303 7.85931C18.4017 6.58481 16.3284 5.86881 14.1666 5.86881Z" fill="white"/>
</svg>
