<svg width="28" height="30" viewBox="0 0 28 30" fill="none" xmlns="http://www.w3.org/2000/svg">
<path d="M14 3.52477V0.673279H28V3.52477H14ZM14 9.22774V6.37625H28V9.22774H14ZM14 14.9307V12.0792H28V14.9307H14ZM23.73 29.1882C20.72 29.1882 17.7856 28.5047 14.9268 27.1379C12.068 25.7711 9.53633 23.9652 7.3318 21.7201C5.12727 19.475 3.35393 16.8968 2.0118 13.9854C0.669668 11.0741 -0.00093236 8.0862 9.72898e-07 5.0218V3.52477H8.26L9.555 10.6535L5.6 14.7881C6.58 16.499 7.805 18.103 9.275 19.6C10.745 21.0971 12.3667 22.3921 14.14 23.4852L18.2 19.3505L25.2 20.7763V29.1882H23.73Z" fill="white"/>
</svg>
