<svg width="50" height="18" viewBox="0 0 50 18" fill="none" xmlns="http://www.w3.org/2000/svg">
<path d="M18.0043 0.000188757C15.045 -0.00771201 11.7117 0.231807 7.83239 0.832889C7.37451 0.897342 2.96304 3.42943 1.7737 5.17706C0.58436 6.92479 0.177513 10.2515 0.177513 10.2515C-0.143584 11.6139 0.0514715 13.8657 0.141044 14.0847C0.26192 14.5587 0.94482 14.9565 2.11773 15.2442C2.25452 13.0552 4.05733 11.3494 6.23724 11.3467C8.51963 11.3467 10.3698 13.2086 10.3698 15.505C10.3683 15.6884 10.3548 15.8715 10.3293 16.0531C10.3902 16.0539 10.4594 16.0556 10.5173 16.0562L35.2366 16.2631C35.1898 16.0131 35.1658 15.7594 35.165 15.505C35.165 13.2086 37.0153 11.3467 39.2975 11.3467C41.5799 11.3467 43.43 13.2086 43.43 15.505C43.43 15.7824 43.4026 16.0591 43.3478 16.3309L49.7724 16.3846C49.9086 14.0131 50.4812 11.5225 49.0468 9.44857C48.4831 8.63354 45.748 7.15755 38.8157 6.05332C35.234 4.24342 31.7384 2.1913 27.9316 1.01533C24.9965 0.429533 21.8093 0.0102726 18.0043 0.000188757ZM16.2276 1.24602C16.8473 1.25059 17.4157 1.27616 17.8821 1.33022L18.6349 6.35677C14.3547 5.82731 9.99308 5.35223 7.68744 3.49794C7.7236 2.92618 8.50982 2.09847 9.39273 1.78202C9.89277 1.6028 13.5425 1.22626 16.2277 1.24602H16.2276ZM19.8048 1.28219C22.3889 1.30964 26.2135 1.56184 28.8449 2.73136C30.1056 3.31872 32.4789 4.69345 34.0661 5.90726L33.41 7.00245C29.1012 6.80701 23.3589 6.56552 21.0021 6.29762L19.8048 1.28219ZM6.23724 13.01C5.57963 13.01 4.94896 13.2729 4.48396 13.7408C4.01896 14.2087 3.75772 14.8433 3.75772 15.505C3.75772 16.1667 4.01896 16.8013 4.48396 17.2692C4.94896 17.7371 5.57963 18 6.23724 18C6.89485 18 7.52552 17.7371 7.99052 17.2692C8.45552 16.8013 8.71675 16.1667 8.71675 15.505C8.71675 14.8433 8.45552 14.2087 7.99052 13.7408C7.52552 13.2729 6.89485 13.01 6.23724 13.01ZM39.2974 13.01C38.6398 13.01 38.0091 13.2729 37.5441 13.7408C37.0791 14.2087 36.8179 14.8433 36.8179 15.505C36.8179 16.1667 37.0791 16.8013 37.5441 17.2692C38.0091 17.7371 38.6398 18 39.2974 18C39.955 18 40.5857 17.7371 41.0507 17.2692C41.5157 16.8013 41.7769 16.1667 41.7769 15.505C41.7769 14.8433 41.5157 14.2087 41.0507 13.7408C40.5857 13.2729 39.955 13.01 39.2974 13.01Z" fill="#A30000"/>
</svg>
