<svg width="23" height="21" viewBox="0 0 23 21" fill="none" xmlns="http://www.w3.org/2000/svg">
<path d="M4.57965 0C3.71606 0 2.98332 0.54983 2.72162 1.30912L0 9.16383V19.6368C0 19.984 0.137856 20.317 0.383243 20.5625C0.628629 20.808 0.961444 20.9459 1.30847 20.9459H2.61694C2.96397 20.9459 3.29679 20.808 3.54217 20.5625C3.78756 20.317 3.92542 19.984 3.92542 19.6368V18.3277H10.8603C10.6035 17.4785 10.4713 16.5966 10.4678 15.7094C10.4699 14.1261 10.882 12.5703 11.664 11.1937C12.4459 9.81712 13.5711 8.66675 14.9297 7.85471H2.61694L4.57965 1.96368H18.9728L20.5168 6.58487C21.3189 6.66853 22.1065 6.85781 22.859 7.14779L20.8309 1.30912C20.5692 0.54983 19.8364 0 18.9728 0H4.57965ZM4.57965 10.4729C5.10019 10.4729 5.59942 10.6798 5.9675 11.0481C6.33558 11.4164 6.54236 11.9158 6.54236 12.4366C6.54236 12.9574 6.33558 13.4569 5.9675 13.8252C5.59942 14.1934 5.10019 14.4003 4.57965 14.4003C4.05911 14.4003 3.55989 14.1934 3.19181 13.8252C2.82373 13.4569 2.61694 12.9574 2.61694 12.4366C2.61694 11.9158 2.82373 11.4164 3.19181 11.0481C3.55989 10.6798 4.05911 10.4729 4.57965 10.4729Z" fill="black"/>
</svg>
