<svg width="24" height="22" viewBox="0 0 24 22" fill="none" xmlns="http://www.w3.org/2000/svg">
<path d="M10.5039 0C12.5037 0 14.1903 1.46888 14.1903 3.34855C14.1903 4.29799 13.7596 5.14234 13.076 5.74574L12.6481 4.88697C13.0458 4.46444 13.2814 3.92532 13.2814 3.34855C13.2814 2.04158 12.0739 0.92729 10.5039 0.92729C8.93391 0.92729 7.72648 2.04158 7.72648 3.34855C7.72648 4.24508 8.29475 5.05095 9.15843 5.46864L9.53626 6.57912C9.44083 6.55556 9.34628 6.52841 9.25281 6.49773L8.79034 7.32265C9.31179 7.69681 9.81648 8.16061 10.3575 8.7379L6.24944 17.9795C3.71111 18.0989 1.26197 16.7258 0 14.4759L5.4453 5.98411C6.46366 6.19157 7.28295 6.45054 8.01443 6.83917L8.42296 6.11053C7.46061 5.51217 6.81745 4.50889 6.81745 3.3486C6.81745 1.46893 8.50401 5.16843e-05 10.5039 5.16843e-05V0ZM16.6984 0.306366C16.8327 0.307912 16.9738 0.330579 17.11 0.37581C17.4216 0.479048 17.6852 0.69181 17.7998 0.921365L17.8144 0.95073L21.092 5.70551C21.1998 5.93486 21.2123 6.26946 21.115 6.57974C21.0156 6.89692 20.8098 7.16213 20.5999 7.27119L13.3441 11.0401C13.1384 11.147 12.8093 11.164 12.5034 11.0621C12.2032 10.9622 11.9481 10.7589 11.8265 10.5216L10.5459 6.69601C10.5434 6.69601 10.5408 6.69617 10.5383 6.69622L10.2188 5.75708C10.2231 5.75749 10.2276 5.75759 10.2319 5.75801L9.98424 5.01798L9.96959 4.98872C9.85496 4.75916 9.84132 4.41586 9.94182 4.09841C10.0423 3.78097 10.2499 3.51345 10.4687 3.39975L12.0886 2.55834C12.419 2.97964 12.5204 3.58186 12.1061 4.14864L11.9995 4.3306L11.48 4.60878L11.8969 5.44407L11.9043 5.44046L12.3143 6.26317C12.312 6.26436 12.3097 6.26539 12.3074 6.26652L12.6257 6.90408L17.7559 4.23926L16.8163 2.35696L16.6102 1.94381L15.0521 2.75323C14.9735 2.24785 14.8035 1.76164 14.5302 1.28996L16.2368 0.403629C16.3637 0.337688 16.5257 0.30446 16.6984 0.306366ZM5.69324 7.07455L4.47713 9.33199L8.10618 11.3664L9.10344 9.51538L9.3223 9.10908L5.69324 7.0746V7.07455ZM6.05209 8.33381L8.0878 9.4751L7.74734 10.1072L5.71163 8.96591L6.05209 8.33381ZM19.1456 9.06719L20.1996 11.179L16.6895 13.0023L15.6354 10.8905L19.1456 9.06719ZM4.13667 9.96409L2.92065 12.2214L6.54966 14.2557L7.54675 12.4048L7.76562 11.9985L4.13657 9.96399L4.13667 9.96409ZM4.49551 11.2232L6.53132 12.3645L6.19076 12.9966L4.155 11.8553L4.49546 11.2232H4.49551ZM19.892 12.3793H19.8921L24 20.6093L23.6908 21.5793L19.789 13.7624L18.9791 14.1832L22.8808 22L21.7509 21.6252L21.096 21.408L21.4488 20.2975L20.3633 19.9384L20.7166 18.8304L19.6298 18.4699L19.901 17.6197L17.822 13.4545L19.892 12.3793Z" fill="black"/>
</svg>
