<svg width="44" height="44" viewBox="0 0 44 44" fill="none" xmlns="http://www.w3.org/2000/svg">
<path d="M41.4333 44C36.1778 44 31.055 42.8283 26.0651 40.4849C21.0752 38.1415 16.6548 35.0452 12.804 31.196C8.95319 27.3468 5.85689 22.9264 3.51511 17.9349C1.17333 12.9433 0.00162963 7.82059 0 2.56667C0 1.83333 0.244444 1.22222 0.733333 0.733333C1.22222 0.244444 1.83333 0 2.56667 0H12.4667C13.037 0 13.5463 0.183333 13.9944 0.55C14.4426 0.916666 14.7074 1.38519 14.7889 1.95556L16.3778 10.5111C16.4593 11.0815 16.4487 11.6013 16.346 12.0707C16.2433 12.54 16.0095 12.9572 15.6444 13.3222L9.77778 19.3111C11.4889 22.2444 13.6278 24.9944 16.1944 27.5611C18.7611 30.1278 21.5926 32.3481 24.6889 34.2222L30.4333 28.4778C30.8 28.1111 31.2791 27.8365 31.8707 27.654C32.4622 27.4715 33.0424 27.4201 33.6111 27.5L42.0444 29.2111C42.6148 29.3333 43.0833 29.6087 43.45 30.0373C43.8167 30.4659 44 30.9646 44 31.5333V41.4333C44 42.1667 43.7556 42.7778 43.2667 43.2667C42.7778 43.7556 42.1667 44 41.4333 44Z" fill="black"/>
</svg>
