<svg width="36" height="51" viewBox="0 0 36 51" fill="none" xmlns="http://www.w3.org/2000/svg">
<path d="M18 0C8.07525 0 0 7.72313 0 17.2125C0 21.7316 2.05987 27.7414 6.12225 35.0753C9.38475 40.9635 13.1591 46.2881 15.1222 48.9375C15.454 49.3902 15.8877 49.7583 16.3883 50.0121C16.8888 50.2659 17.4422 50.3981 18.0034 50.3981C18.5646 50.3981 19.1179 50.2659 19.6185 50.0121C20.119 49.7583 20.5528 49.3902 20.8845 48.9375C22.8443 46.2881 26.622 40.9635 29.8845 35.0753C33.9401 27.7436 36 21.7339 36 17.2125C36 7.72313 27.9247 0 18 0ZM18 25.2C16.576 25.2 15.1839 24.7777 13.9999 23.9866C12.8159 23.1954 11.893 22.0709 11.3481 20.7553C10.8031 19.4397 10.6605 17.992 10.9383 16.5954C11.2162 15.1987 11.9019 13.9158 12.9088 12.9088C13.9158 11.9019 15.1987 11.2162 16.5954 10.9383C17.992 10.6605 19.4397 10.8031 20.7553 11.3481C22.0709 11.893 23.1954 12.8159 23.9866 13.9999C24.7777 15.1839 25.2 16.576 25.2 18C25.1979 19.9089 24.4387 21.7391 23.0889 23.0889C21.7391 24.4387 19.9089 25.1979 18 25.2Z" fill="black"/>
</svg>
