<svg width="28" height="30" viewBox="0 0 28 30" fill="none" xmlns="http://www.w3.org/2000/svg">
<path d="M14 3.14117V0.176468H28V3.14117H14ZM14 9.07059V6.10588H28V9.07059H14ZM14 15V12.0353H28V15H14ZM23.73 29.8235C20.72 29.8235 17.7856 29.113 14.9268 27.6919C12.068 26.2708 9.53633 24.3932 7.3318 22.059C5.12727 19.7247 3.35393 17.0442 2.0118 14.0172C0.669668 10.9902 -0.00093236 7.88372 9.72898e-07 4.69764V3.14117H8.26L9.555 10.5529L5.6 14.8518C6.58 16.6306 7.805 18.2982 9.275 19.8547C10.745 21.4112 12.3667 22.7576 14.14 23.8941L18.2 19.5953L25.2 21.0776V29.8235H23.73Z" fill="white"/>
</svg>
