<svg width="153" height="96" viewBox="0 0 153 96" fill="none" xmlns="http://www.w3.org/2000/svg">
<path d="M130.007 62.2766C129.997 63.7503 129.407 65.1609 128.365 66.2031C127.322 67.2452 125.911 67.8351 124.436 67.845H101.974C100.499 67.8367 99.0863 67.2474 98.0433 66.2049C97.0003 65.1624 96.4106 63.7509 96.4023 62.2766C96.4123 60.8028 97.0024 59.3922 98.0451 58.3501C99.0878 57.3079 100.499 56.7181 101.974 56.7081H124.436C125.91 56.7213 127.319 57.3122 128.361 58.3537C129.403 59.3951 129.994 60.8038 130.007 62.2766ZM51.6548 62.2766C51.6465 63.7509 51.0568 65.1624 50.0138 66.2049C48.9708 67.2474 47.5585 67.8367 46.0835 67.845H23.6211C22.1461 67.8367 20.7338 67.2474 19.6908 66.2049C18.6478 65.1624 18.0581 63.7509 18.0498 62.2766C18.0598 60.8028 18.6499 59.3922 19.6926 58.3501C20.7353 57.3079 22.1466 56.7181 23.6211 56.7081H46.0835C47.5569 56.7197 48.9666 57.3103 50.0079 58.3523C51.0492 59.3942 51.6385 60.8039 51.6485 62.2766H51.6548ZM40.0057 10.5976H112.205L121.062 33.1371C120.922 33.1371 120.783 33.1118 120.625 33.1118H31.1423L40.0057 10.5976ZM151.938 27.7206C151.572 25.5226 150.348 23.5595 148.536 22.2618C146.724 20.9641 144.47 20.4377 142.27 20.798L142.321 20.7917L128.501 23.0443C128.298 23.0824 128.099 23.1375 127.905 23.2089L127.937 23.1962L119.036 0.55542H33.1493L24.2479 23.1962C24.0681 23.1342 23.884 23.0855 23.6971 23.0507L9.86384 20.7917C7.67769 20.4485 5.4442 20.978 3.64514 22.266C1.84608 23.5539 0.625627 25.4971 0.247044 27.6763L0.240713 27.7269C-0.10428 29.9122 0.424835 32.1454 1.71372 33.9439C3.00261 35.7425 4.94776 36.9619 7.12884 37.3388L7.17949 37.3451L15.2262 38.6676C10.118 43.5683 7.1589 50.2911 6.99589 57.3662V95.9087H34.8523V81.3548H113.54V95.9087H141.397V75.3561C141.511 74.8752 141.574 74.3247 141.574 73.7552V57.3915C141.42 50.5705 138.674 44.0638 133.895 39.1928L133.901 39.1992L145.081 37.3641C147.279 36.9966 149.241 35.773 150.537 33.9616C151.833 32.1501 152.357 29.8989 151.995 27.7016L152.001 27.7522L151.938 27.7206Z" fill="white"/>
</svg>
