<svg width="31" height="30" viewBox="0 0 31 30" fill="none" xmlns="http://www.w3.org/2000/svg">
<path d="M17.038 0.00184549C18.1325 -0.00235461 19.2271 0.00864594 20.3213 0.0348437L20.6123 0.0453431C20.9483 0.0573424 21.2798 0.0723415 21.6802 0.0903405C23.2762 0.165336 24.3651 0.417322 25.3205 0.787801C26.3105 1.16878 27.1444 1.68475 27.9784 2.5187C28.7409 3.26807 29.331 4.17453 29.7078 5.17505C30.0783 6.13049 30.3303 7.22093 30.4053 8.81684C30.4232 9.21582 30.4382 9.5488 30.4502 9.88478L30.4592 10.1758C30.4859 11.2695 30.4974 12.3635 30.4937 13.4576L30.4952 14.5765V16.5414C30.4989 17.6359 30.4874 18.7305 30.4607 19.8247L30.4517 20.1157C30.4397 20.4517 30.4247 20.7832 30.4067 21.1836C30.3318 22.7795 30.0768 23.8685 29.7078 24.8239C29.3323 25.8255 28.742 26.7327 27.9784 27.4818C27.2284 28.2442 26.3214 28.8343 25.3205 29.2112C24.3651 29.5817 23.2762 29.8336 21.6802 29.9086C21.2798 29.9266 20.9483 29.9416 20.6123 29.9536L20.3213 29.9626C19.2271 29.9893 18.1326 30.0008 17.038 29.9971L15.9191 29.9986H13.9557C12.8611 30.0023 11.7666 29.9908 10.6724 29.9641L10.3814 29.9551C10.0253 29.9422 9.66934 29.9272 9.31345 29.9101C7.71755 29.8351 6.62861 29.5802 5.67166 29.2112C4.67075 28.8352 3.76413 28.245 3.01531 27.4818C2.25193 26.7322 1.66123 25.8252 1.28441 24.8239C0.913935 23.8685 0.66195 22.7795 0.586954 21.1836C0.570249 20.8277 0.55525 20.4717 0.541957 20.1157L0.534457 19.8247C0.506804 18.7305 0.494304 17.636 0.496959 16.5414V13.4576C0.492773 12.3635 0.503774 11.2695 0.529957 10.1758L0.540457 9.88478C0.552456 9.5488 0.567455 9.21582 0.585454 8.81684C0.66045 7.21943 0.912435 6.13199 1.28291 5.17505C1.65995 4.17404 2.2518 3.26783 3.01681 2.5202C3.76511 1.75637 4.67116 1.16514 5.67166 0.787801C6.62861 0.417322 7.71605 0.165336 9.31345 0.0903405L10.3814 0.0453431L10.6724 0.0378437C11.7661 0.0102045 12.8601 -0.00229614 13.9542 0.000345682L17.038 0.00184549ZM15.4961 7.50142C14.5024 7.48736 13.5158 7.67094 12.5937 8.04149C11.6716 8.41203 10.8323 8.96215 10.1247 9.65987C9.41701 10.3576 8.85508 11.189 8.47153 12.1058C8.08799 13.0226 7.89047 14.0065 7.89047 15.0002C7.89047 15.994 8.08799 16.9779 8.47153 17.8947C8.85508 18.8115 9.41701 19.6429 10.1247 20.3406C10.8323 21.0383 11.6716 21.5884 12.5937 21.959C13.5158 22.3295 14.5024 22.5131 15.4961 22.4991C17.4851 22.4991 19.3927 21.7089 20.7991 20.3025C22.2055 18.896 22.9957 16.9885 22.9957 14.9995C22.9957 13.0105 22.2055 11.1029 20.7991 9.69649C19.3927 8.29005 17.4851 7.50142 15.4961 7.50142ZM15.4961 10.5012C16.0938 10.4902 16.6878 10.5984 17.2432 10.8195C17.7986 11.0406 18.3044 11.3702 18.7311 11.789C19.1577 12.2078 19.4966 12.7074 19.728 13.2586C19.9594 13.8098 20.0786 14.4016 20.0787 14.9995C20.0788 15.5973 19.9598 16.1892 19.7286 16.7405C19.4974 17.2918 19.1587 17.7915 18.7322 18.2104C18.3057 18.6293 17.8 18.9591 17.2446 19.1804C16.6892 19.4016 16.0953 19.51 15.4976 19.4992C14.3042 19.4992 13.1597 19.0252 12.3158 18.1813C11.4719 17.3374 10.9979 16.1929 10.9979 14.9995C10.9979 13.8061 11.4719 12.6616 12.3158 11.8177C13.1597 10.9738 14.3042 10.4997 15.4976 10.4997L15.4961 10.5012ZM23.3706 5.25155C22.8868 5.27091 22.4291 5.47676 22.0936 5.82597C21.7581 6.17518 21.5707 6.64067 21.5707 7.12494C21.5707 7.60921 21.7581 8.0747 22.0936 8.42391C22.4291 8.77312 22.8868 8.97896 23.3706 8.99833C23.8679 8.99833 24.3448 8.8008 24.6964 8.44919C25.048 8.09758 25.2455 7.62069 25.2455 7.12344C25.2455 6.62619 25.048 6.1493 24.6964 5.79769C24.3448 5.44608 23.8679 5.24855 23.3706 5.24855V5.25155Z" fill="white"/>
</svg>
