<svg width="189" height="96" viewBox="0 0 189 96" fill="none" xmlns="http://www.w3.org/2000/svg">
<path d="M185.736 19.7252L122.691 38.7035L107.802 31.1825C105.182 29.8589 102.293 29.1693 99.363 29.1681H82.5873V14.8651H99.1006C101.707 14.8651 103.819 12.7316 103.819 10.0975V5.3298C103.819 2.69566 101.707 0.562134 99.1006 0.562134H51.9198C49.3131 0.562134 47.2017 2.69566 47.2017 5.3298V10.0975C47.2017 12.7316 49.3131 14.8651 51.9198 14.8651H68.4331V29.1681H51.9198L11.1439 21.6769C10.5807 21.5719 10.0092 21.519 9.43651 21.519C4.34688 21.519 0.0209961 25.6996 0.0209961 31.0573V59.3504C0.0209961 63.9572 3.28237 67.9084 7.77043 68.7308L28.3294 72.5122V86.3801C28.3294 91.6454 32.5551 95.9154 37.7656 95.9154H118.748C121.27 95.9154 123.688 94.8963 125.46 93.0816L188.051 29.0907C188.493 28.6437 188.741 28.0358 188.741 27.4041V22.0166C188.744 20.4344 187.243 19.2901 185.736 19.7252ZM28.3294 57.9738L14.1752 55.3724V36.7696L28.3294 39.3709V57.9738ZM162.007 83.2007C162.007 90.221 167.639 95.9154 174.59 95.9154C181.54 95.9154 187.172 90.224 187.172 83.2007C187.172 76.1773 174.59 57.7741 174.59 57.7741C174.59 57.7741 162.007 76.1803 162.007 83.2007Z" fill="white"/>
</svg>
