<svg width="99" height="98" viewBox="0 0 99 98" fill="none" xmlns="http://www.w3.org/2000/svg">
<path d="M49.5 0.575684C36.5919 0.575684 24.2125 5.70339 15.0852 14.8308C5.95779 23.9581 0.830078 36.3375 0.830078 49.2456C0.830078 62.1537 5.95779 74.533 15.0852 83.6604C24.2125 92.7878 36.5919 97.9155 49.5 97.9155C55.8914 97.9155 62.2203 96.6566 68.1252 94.2107C74.0301 91.7648 79.3954 88.1798 83.9148 83.6604C88.4342 79.141 92.0192 73.7757 94.4651 67.8708C96.911 61.9659 98.1699 55.637 98.1699 49.2456C98.1699 42.8542 96.911 36.5253 94.4651 30.6204C92.0192 24.7155 88.4342 19.3502 83.9148 14.8308C79.3954 10.3114 74.0301 6.72635 68.1252 4.28046C62.2203 1.83457 55.8914 0.575684 49.5 0.575684ZM49.5 17.5584C66.9783 17.5584 81.1872 31.7673 81.1872 49.2456C81.1872 66.7239 66.9783 80.9328 49.5 80.9328C32.0217 80.9328 17.8128 66.7239 17.8128 49.2456C17.8128 31.7673 32.0217 17.5584 49.5 17.5584ZM49.5 21.2863C45.2715 21.2863 41.2661 22.2224 37.6763 23.8962C40.0678 30.7059 44.1604 39.3045 49.5 39.3045C54.8481 39.3045 58.8044 30.6785 61.2537 23.8637C57.6817 22.2104 53.7009 21.2863 49.5 21.2863ZM69.9521 30.167C64.2124 34.5458 57.2892 41.1001 58.9403 46.1819C60.5932 51.2692 70.0221 52.3657 77.2607 52.5889C77.3907 51.4925 77.4593 50.3774 77.4593 49.2456C77.4593 41.8639 74.6106 35.1599 69.9521 30.167ZM29.0013 30.2173C24.3704 35.2046 21.5407 41.8886 21.5407 49.2456C21.5407 50.395 21.6111 51.5275 21.7453 52.6401C28.9594 52.4692 38.3927 51.2332 40.0419 46.1576C41.6933 41.0748 34.7234 34.6523 29.0013 30.2173ZM43.5376 39.256C43.1622 39.2666 42.7987 39.3903 42.4948 39.611C42.095 39.9016 41.827 40.3391 41.7497 40.8273C41.6724 41.3155 41.7922 41.8145 42.0827 42.2143C42.3732 42.6143 42.8107 42.8824 43.2989 42.9598C43.7871 43.0372 44.286 42.9176 44.686 42.6271C44.8841 42.4832 45.0519 42.3018 45.1798 42.0931C45.3077 41.8843 45.3933 41.6525 45.4316 41.4107C45.4699 41.1689 45.4602 40.9219 45.4031 40.6839C45.3459 40.4459 45.2425 40.2214 45.0986 40.0234C44.9204 39.7782 44.6851 39.5802 44.4131 39.4465C44.1411 39.3128 43.8406 39.2474 43.5376 39.256ZM55.4624 39.256C55.4184 39.2548 55.3744 39.255 55.3304 39.2569C55.0499 39.2687 54.7757 39.3438 54.5282 39.4765C54.2808 39.6092 54.0665 39.7961 53.9014 40.0232C53.7575 40.2212 53.654 40.4457 53.5968 40.6837C53.5397 40.9218 53.53 41.1688 53.5683 41.4106C53.6066 41.6524 53.6922 41.8843 53.8201 42.093C53.9481 42.3018 54.1159 42.4832 54.314 42.6271C54.7139 42.9176 55.2128 43.0373 55.7011 42.9599C56.1893 42.8826 56.6267 42.6144 56.9173 42.2146C57.2078 41.8147 57.3276 41.3158 57.2503 40.8275C57.173 40.3393 56.905 39.9018 56.5051 39.6112C56.2013 39.3905 55.8378 39.2667 55.4624 39.256ZM49.5 42.6182C47.7423 42.6182 46.0566 43.3164 44.8137 44.5593C43.5708 45.8022 42.8726 47.4879 42.8726 49.2456C42.8726 51.0033 43.5708 52.689 44.8137 53.9319C46.0566 55.1747 47.7423 55.873 49.5 55.873C51.2577 55.873 52.9434 55.1747 54.1863 53.9319C55.4291 52.689 56.1274 51.0033 56.1274 49.2456C56.1274 47.4879 55.4291 45.8022 54.1863 44.5593C52.9434 43.3164 51.2577 42.6182 49.5 42.6182ZM39.9116 50.4959C39.725 50.4986 39.5398 50.5293 39.3624 50.587C39.1295 50.6626 38.9139 50.7834 38.7277 50.9423C38.5415 51.1013 38.3885 51.2954 38.2773 51.5135C38.1662 51.7316 38.099 51.9694 38.0798 52.2135C38.0606 52.4575 38.0896 52.703 38.1653 52.9358C38.3181 53.4059 38.6513 53.7961 39.0918 54.0205C39.5322 54.2449 40.0437 54.2852 40.5139 54.1325C40.7467 54.0569 40.9623 53.9361 41.1485 53.7772C41.3346 53.6183 41.4877 53.4242 41.5988 53.2061C41.71 52.988 41.7771 52.7502 41.7963 52.5061C41.8156 52.2621 41.7866 52.0167 41.7109 51.7839C41.5879 51.4052 41.3469 51.0758 41.0231 50.844C40.6993 50.6122 40.3098 50.4902 39.9116 50.4959ZM59.1426 50.4976C58.7356 50.4799 58.3339 50.5961 57.9992 50.8283C57.6644 51.0606 57.415 51.3962 57.289 51.7837C57.2134 52.0165 57.1844 52.2619 57.2036 52.5059C57.2229 52.75 57.29 52.9878 57.4012 53.2059C57.5123 53.424 57.6653 53.618 57.8515 53.777C58.0377 53.9359 58.2533 54.0567 58.4861 54.1323C58.9562 54.285 59.4677 54.2448 59.9082 54.0204C60.3486 53.796 60.6819 53.4059 60.8347 52.9358C60.9103 52.703 60.9394 52.4575 60.9202 52.2135C60.9009 51.9694 60.8338 51.7316 60.7227 51.5135C60.6115 51.2954 60.4585 51.1013 60.2723 50.9423C60.0861 50.7834 59.8705 50.6626 59.6376 50.587C59.4774 50.535 59.3109 50.5049 59.1426 50.4976ZM40.0593 56.2371C35.5879 56.2586 29.6543 59.7231 25.0598 62.8496C29.0008 69.926 35.9246 75.1028 44.1432 76.6919C46.2122 69.7766 47.9581 60.4096 43.6366 57.2701C42.6313 56.5397 41.4129 56.2305 40.0593 56.2371ZM58.9092 56.2412C57.5465 56.2412 56.3221 56.5552 55.3168 57.2855C50.9893 60.4295 52.8599 69.7338 54.8843 76.6867C63.1037 75.0889 70.0254 69.9019 73.9588 62.8162C69.4012 59.6632 63.4099 56.2412 58.9092 56.241V56.2412ZM49.5 57.4428C49.0056 57.4428 48.5315 57.6392 48.182 57.9888C47.8324 58.3383 47.636 58.8125 47.636 59.3068C47.636 59.8012 47.8324 60.2753 48.182 60.6248C48.5315 60.9744 49.0056 61.1708 49.5 61.1708C49.9943 61.1708 50.4684 60.9744 50.818 60.6248C51.1676 60.2753 51.3639 59.8012 51.3639 59.3068C51.3639 58.8125 51.1676 58.3383 50.818 57.9888C50.4684 57.6392 49.9943 57.4428 49.5 57.4428Z" fill="white"/>
</svg>
